<?xml version="1.0" encoding="UTF-8" standalone="no"?><!-- Generator: Gravit.io -->
<svg xmlns="http://www.w3.org/2000/svg" xmlns:xlink="http://www.w3.org/1999/xlink" style="isolation:isolate"
     viewBox="0 0 427 584">
    <defs>
        <clipPath id="_clipPath_j8RAAAwTu355GodezCDXC8IPbg6G3Gfw">
            <rect width="1664" height="584"/>
        </clipPath>
    </defs>
    <g clip-path="url(#_clipPath_j8RAAAwTu355GodezCDXC8IPbg6G3Gfw)">
        <path d=" M 180.502 42.703 L 248.289 3.562 C 259.464 -2.891 268.524 0.938 268.524 12.115 L 268.524 508.941 C 268.524 520.117 268.464 530.409 248.289 540.862 L 180.502 580.003 C 169.326 586.456 160.267 582.627 160.267 571.45 L 160.267 74.624 C 160.267 63.448 162.326 53.156 180.502 42.703 Z "
              fill-rule="evenodd" fill="rgb(255,255,255)"/>
        <path d=" M 427.367 398.647 C 427.367 409.824 418.308 424.116 407.132 430.569 L 339.346 469.71 C 328.17 476.163 319.111 472.334 319.111 461.157 L 319.111 326.692 L 319.111 326.692 L 319.111 326.692 L 319.111 194.138 C 319.111 182.961 328.17 173.9 339.346 173.9 L 407.132 173.9 C 418.308 173.9 427.367 182.961 427.367 194.138 L 427.367 326.692 L 427.367 326.692 L 427.367 326.692 L 427.367 398.647 L 427.367 398.647 Z "
              fill-rule="evenodd" fill="rgb(255,255,255)"/>
        <path d=" M 109.384 392.406 C 109.425 403.576 100.4 412.665 89.224 412.706 L 21.438 412.957 C 10.262 412.998 1.169 403.977 1.128 392.807 L 0.638 260.336 C 0.638 260.335 0.638 260.335 0.638 260.334 L 0.371 188.425 C 0.33 177.255 9.337 162.939 20.488 156.449 L 88.13 117.081 C 99.281 110.591 108.355 114.384 108.396 125.554 L 108.897 260.857 L 108.897 260.857 L 109.384 392.406 L 109.384 392.406 Z "
              fill-rule="evenodd" fill="rgb(255,255,255)"/>
        <path d=" M 0 0.427 L 427.367 0.427 L 427.367 584 L 0 584 L 0 0.427 Z " fill-rule="evenodd" fill="none"/>
    </g>
</svg>