<?xml version="1.0" encoding="iso-8859-1"?>
<!-- Generator: Adobe Illustrator 19.0.0, SVG Export Plug-In . SVG Version: 6.00 Build 0)  -->
<svg version="1.1" id="Capa_1" xmlns="http://www.w3.org/2000/svg" xmlns:xlink="http://www.w3.org/1999/xlink" x="0px" y="0px"
	 viewBox="0 0 464 464" style="enable-background:new 0 0 464 464;" xml:space="preserve">
<g>
	<g>
		<path d="M280,320c-2.122,0-4.156-0.844-5.656-2.344L244.688,288H160v16h64v16H120c-1.242,0-2.467-0.289-3.578-0.844L80,300.945
			v22.109L121.887,344H168c4.418,0,8,3.582,8,8s-3.582,8-8,8h-48c-1.242,0-2.467-0.289-3.578-0.844L80,340.945v22.109L121.887,384
			H168c4.418,0,8,3.582,8,8s-3.582,8-8,8h-48c-1.242,0-2.467-0.289-3.578-0.844L80,380.945v22.109L121.887,424H168
			c4.418,0,8,3.582,8,8s-3.582,8-8,8h-48c-1.242,0-2.467-0.289-3.578-0.844L80,420.945v22.109L121.887,464h108.816l46.766-15.586
			c0.816-0.274,1.671-0.414,2.531-0.414h88V320H280z"/>
	</g>
</g>
<g>
	<g>
		<path d="M331.28,248l-23.12-23.12c28.733-23.834,44.901-59.563,43.84-96.88C352,57.308,294.692,0,224,0S96,57.308,96,128
			s57.308,128,128,128c25.24-0.451,49.849-7.961,71.04-21.68L324.72,264H384v-16H331.28z M184,64c13.255,0,24,10.745,24,24
			s-10.745,24-24,24s-24-10.745-24-24C160.014,74.751,170.751,64.014,184,64z M173.445,181.859l-10.891-11.719l112-104
			l10.891,11.719L173.445,181.859z M264,184c-13.255,0-24-10.745-24-24s10.745-24,24-24s24,10.745,24,24
			C287.986,173.249,277.249,183.986,264,184z"/>
	</g>
</g>
<g>
	<g>
		<circle cx="264" cy="160" r="8"/>
	</g>
</g>
<g>
	<g>
		<circle cx="184" cy="88" r="8"/>
	</g>
</g>
<g>
</g>
<g>
</g>
<g>
</g>
<g>
</g>
<g>
</g>
<g>
</g>
<g>
</g>
<g>
</g>
<g>
</g>
<g>
</g>
<g>
</g>
<g>
</g>
<g>
</g>
<g>
</g>
<g>
</g>
</svg>
