<?xml version="1.0" encoding="iso-8859-1"?>
<svg version="1.1" id="Capa_1" xmlns="http://www.w3.org/2000/svg" xmlns:xlink="http://www.w3.org/1999/xlink" x="0px" y="0px" viewBox="0 0 60 60" style="enable-background:new 0 0 60 60;" xml:space="preserve">
<g>
<path d="M26.894,7.358c-0.551,0-1.097,0.153-1.579,0.444c-0.046,0.027-0.09,0.059-0.13,0.093L11.634,19.358H1c-0.553,0-1,0.447-1,1
v19c0,0.266,0.105,0.52,0.293,0.707S0.734,40.358,1,40.358l10.61-0.005l13.543,12.44c0.05,0.046,0.104,0.086,0.161,0.12
c0.482,0.291,1.028,0.444,1.579,0.444c1.713,0,3.106-1.416,3.106-3.156V10.514C30,8.774,28.606,7.358,26.894,7.358z M13,38.358
c0,0.553-0.447,1-1,1s-1-0.447-1-1v-4c0-0.553,0.447-1,1-1s1,0.447,1,1V38.358z M13,25.358c0,0.553-0.447,1-1,1s-1-0.447-1-1v-4
c0-0.553,0.447-1,1-1s1,0.447,1,1V25.358z"/>
<path id="svg_3" d="m46.56128,29.97643l7.293,-7.293c0.391,-0.391 0.391,-1.023 0,-1.414s-1.023,-0.391 -1.414,0l-7.293,7.293l-7.293,-7.293c-0.391,-0.391 -1.023,-0.391 -1.414,0s-0.391,1.023 0,1.414l7.293,7.293l-7.293,7.293c-0.391,0.391 -0.391,1.023 0,1.414c0.195,0.195 0.451,0.293 0.707,0.293s0.512,-0.098 0.707,-0.293l7.293,-7.293l7.293,7.293c0.195,0.195 0.451,0.293 0.707,0.293s0.512,-0.098 0.707,-0.293c0.391,-0.391 0.391,-1.023 0,-1.414l-7.293,-7.293z"/>

</g>
<g>
</g>
<g>
</g>
<g>
</g>
<g>
</g>
<g>
</g>
<g>
</g>
<g>
</g>
<g>
</g>
<g>
</g>
<g>
</g>
<g>
</g>
<g>
</g>
<g>
</g>
<g>
</g>
<g>
</g>
</svg>