<?xml version="1.0" encoding="iso-8859-1"?>
<!-- Generator: Adobe Illustrator 19.0.0, SVG Export Plug-In . SVG Version: 6.00 Build 0)  -->
<svg version="1.1" id="Capa_1" xmlns="http://www.w3.org/2000/svg" xmlns:xlink="http://www.w3.org/1999/xlink" x="0px" y="0px"
	 viewBox="0 0 512 512" style="enable-background:new 0 0 512 512;" xml:space="preserve">
<g>
	<g>
		<path d="M178.2,316.02h-30.901c-3.627,10.457-11.168,19.083-20.876,24.364l-3.864-24.364H32.23l23.331,144.302
			c4.146,20.684,22.456,35.698,43.55,35.698c28.235,0,49.001-26.043,43.667-52.529l-11.602-73.14
			C155.052,361.24,173.284,341.118,178.2,316.02z"/>
	</g>
</g>
<g>
	<g>
		<path d="M45,106.02c-24.901,0-45,20.099-45,45v90c0,24.9,20.099,45,45,45h135v-180H45z M90,211.02c0,8.291-6.709,15-15,15
			s-15-6.709-15-15v-30c0-8.291,6.709-15,15-15s15,6.709,15,15V211.02z M150,211.02c0,8.291-6.709,15-15,15s-15-6.709-15-15v-30
			c0-8.291,6.709-15,15-15s15,6.709,15,15V211.02z"/>
	</g>
</g>
<g>
	<g>
		<path d="M355.13,21.689C300.392,52.18,268.951,78.704,210,99.642v192.74c59.442,21.07,89.643,47.045,145.115,77.953
			c29.77,16.62,66.885-4.95,66.885-39.315v-270C422,26.701,384.941,5.076,355.13,21.689z"/>
	</g>
</g>
<g>
	<g>
		<path d="M503.709,167.602L452,141.747v108.545l51.709-25.854c5.083-2.549,8.291-7.734,8.291-13.418v-30
			C512,175.336,508.792,170.151,503.709,167.602z"/>
	</g>
</g>
<g>
</g>
<g>
</g>
<g>
</g>
<g>
</g>
<g>
</g>
<g>
</g>
<g>
</g>
<g>
</g>
<g>
</g>
<g>
</g>
<g>
</g>
<g>
</g>
<g>
</g>
<g>
</g>
<g>
</g>
</svg>
