<?xml version="1.0" encoding="UTF-8"?>
<!DOCTYPE svg PUBLIC "-//W3C//DTD SVG 1.1//EN" "http://www.w3.org/Graphics/SVG/1.1/DTD/svg11.dtd">
<!-- Creator: CorelDRAW -->
<svg xmlns="http://www.w3.org/2000/svg" xml:space="preserve" width="1.70666in" height="1.70666in" fill="currentColor" version="1.1" style="shape-rendering:geometricPrecision; text-rendering:geometricPrecision; image-rendering:optimizeQuality; fill-rule:evenodd; clip-rule:evenodd"
viewBox="0 0 1706.66 1706.66"
 xmlns:xlink="http://www.w3.org/1999/xlink"
 xmlns:xodm="http://www.corel.com/coreldraw/odm/2003">
 <g id="Layer_x0020_1">
  <metadata id="CorelCorpID_0Corel-Layer"/>
  <path class="fil0" d="M1568.84 1706.65l-1431.02 0c-64.39,0 -116.77,-52.39 -116.77,-116.78l-0.01 -917.55c0,-38.99 112.87,-143.72 708.35,-584.77 52.43,-38.83 93.86,-69.51 111.67,-83.33 7.22,-5.61 17.32,-5.61 24.53,0 17.82,13.83 59.28,44.54 111.76,83.4 595.39,440.99 708.27,545.71 708.27,584.7l0 917.55c-0.01,64.39 -52.41,116.78 -116.78,116.78zm-1507.8 -1032.7l0 915.93c0,42.33 34.44,76.76 76.78,76.76l1431.02 0c42.33,0 76.76,-34.43 76.76,-76.76l0 -915.93c-10.43,-54.68 -622.65,-500.34 -792.28,-628.76 -181,137.02 -765.24,560.44 -792.28,628.76z"/>
  <path class="fil0" d="M1664.55 1623.98c-3.35,0 -6.74,-0.85 -9.87,-2.61l-687.36 -390.56 -101.86 77.8c-7.17,5.49 -17.11,5.49 -24.28,0l-102.18 -78.04 -688.35 376.85c-23.09,12.64 -42.32,-22.41 -19.21,-35.07l672.78 -368.34 -675.31 -515.8c-20.85,-15.93 3.42,-47.7 24.28,-31.8l800.14 611.13 800.14 -611.11c20.84,-15.93 45.13,15.87 24.28,31.8l-675.87 516.2 672.57 382.17c17.83,10.13 10.49,37.37 -9.89,37.37z"/>
  <path class="fil0" d="M1122.36 865.35l-541.56 0c-65.18,0 -61.81,-113.37 -33.89,-160.53l250.44 -422.96c28.96,-48.91 82.62,-48.9 111.59,0l250.44 422.96c29.09,49.15 31.13,160.52 -37.03,160.52zm-269.21 -580.17c-7.17,0 -14.94,6.22 -21.38,17.07l-250.43 422.96c-19.28,32.56 -15.72,100.14 -0.54,100.14l541.56 -0c21.5,0 20.84,-69.35 2.6,-100.15l-250.44 -422.95c-6.42,-10.85 -14.21,-17.07 -21.37,-17.07z"/>
  <path class="fil0" d="M853.33 684.64c-11.04,0 -20,-8.96 -20,-20l0 -218.74c0,-26.33 40,-26.33 40,0l0 218.74c0,11.06 -8.96,20 -20,20z"/>
  <circle class="fil0" cx="853.33" cy="750.58" r="20"/>
 </g>
</svg>
