<?xml version="1.0" encoding="iso-8859-1"?>
<!-- Generator: Adobe Illustrator 19.0.0, SVG Export Plug-In . SVG Version: 6.00 Build 0)  -->
<svg version="1.1" id="Capa_1" xmlns="http://www.w3.org/2000/svg" xmlns:xlink="http://www.w3.org/1999/xlink" x="0px" y="0px"
	 viewBox="0 0 512 512" style="enable-background:new 0 0 512 512;" xml:space="preserve">
<g>
	<g>
		<rect x="256" y="330" width="76" height="90"/>
	</g>
</g>
<g>
	<g>
		<rect x="90" y="90" width="242" height="90"/>
	</g>
</g>
<g>
	<g>
		<path d="M452,60v392c0,16.542,13.458,30,30,30s30-13.458,30-30V60H452z"/>
	</g>
</g>
<g>
	<g>
		<path d="M422,452V0H0v452c0,33.084,26.916,60,60,60h422C448.916,512,422,485.084,422,452z M196,450H60v-30h136V450z M196,390H60
			v-30h136V390z M196,330H60v-30h136V330z M362,450H226V300h136V450z M362,270H60v-30h302V270z M362,210H60V60h302V210z"/>
	</g>
</g>
<g>
</g>
<g>
</g>
<g>
</g>
<g>
</g>
<g>
</g>
<g>
</g>
<g>
</g>
<g>
</g>
<g>
</g>
<g>
</g>
<g>
</g>
<g>
</g>
<g>
</g>
<g>
</g>
<g>
</g>
</svg>
